<svg width="32" height="32" viewBox="0 0 32 32" fill="none" xmlns="http://www.w3.org/2000/svg">
<path d="M24.5 32H7.5C3.3645 32 0 28.6355 0 24.5V7.5C0 3.3645 3.3645 0 7.5 0H24.5C28.6355 0 32 3.3645 32 7.5V24.5C32 28.6355 28.6355 32 24.5 32ZM7.5 2.5C4.743 2.5 2.5 4.743 2.5 7.5V24.5C2.5 27.257 4.743 29.5 7.5 29.5H24.5C27.257 29.5 29.5 27.257 29.5 24.5V7.5C29.5 4.743 27.257 2.5 24.5 2.5H7.5ZM20.375 23.875C20.375 24.5654 19.8154 25.125 19.125 25.125H12.875C11.2165 25.059 11.2177 22.6904 12.875 22.625H14.75V15.5625C14.75 14.8733 14.1892 14.3125 13.5 14.3125H12.875C11.2165 14.2465 11.2177 11.8779 12.875 11.8125H13.5C15.5677 11.8125 17.25 13.4948 17.25 15.5625V22.625H19.125C19.8154 22.625 20.375 23.1846 20.375 23.875ZM16 10C16.8629 10 17.5625 9.30044 17.5625 8.4375C17.4802 6.36487 14.5195 6.36544 14.4375 8.4375C14.4375 9.30044 15.1371 10 16 10Z" fill="#E2E2E2"/>
</svg>
