<svg width="32" height="32" viewBox="0 0 32 32" fill="none" xmlns="http://www.w3.org/2000/svg">
<path d="M24.5 32H7.5C3.3645 32 0 28.6355 0 24.5V7.5C0 3.3645 3.3645 0 7.5 0H24.5C28.6355 0 32 3.3645 32 7.5V24.5C32 28.6355 28.6355 32 24.5 32ZM7.5 2.5C4.743 2.5 2.5 4.743 2.5 7.5V24.5C2.5 27.257 4.743 29.5 7.5 29.5H24.5C27.257 29.5 29.5 27.257 29.5 24.5V7.5C29.5 4.743 27.257 2.5 24.5 2.5H7.5ZM16.1654 26.8747C17.528 26.8542 18.5952 25.8221 18.7621 24.3639L19.1891 20.7726C19.2706 20.0871 18.781 19.4653 18.0954 19.3838C17.4103 19.3021 16.7881 19.7919 16.7066 20.4774L16.2792 24.0714C16.2789 24.0738 16.2786 24.0761 16.2784 24.0785C16.2588 24.2521 16.1968 24.374 16.1279 24.3751C16.0537 24.3741 15.9991 24.24 15.977 24.1067L14.2634 7.81712C14.2631 7.81387 14.2627 7.81063 14.2624 7.80737C14.1167 6.52019 13.1106 5.59744 11.8157 5.5635C10.5211 5.52719 9.46756 6.39813 9.25456 7.67594C9.25044 7.70088 9.247 7.726 9.24438 7.75112L8.26875 17.0594C8.25638 17.116 8.22581 17.1822 8.09612 17.1873C7.95012 17.1929 7.92338 17.112 7.9085 17.0532L7.46756 15.1547C7.31138 14.4823 6.63956 14.0636 5.96719 14.2199C5.29475 14.3761 4.87619 15.0479 5.03237 15.7203L5.47569 17.6292C5.47713 17.6354 5.47862 17.6418 5.48019 17.6479C5.79094 18.8981 6.90563 19.7355 8.19413 19.6854C9.48131 19.6348 10.5282 18.7121 10.74 17.4414C10.7441 17.4165 10.7476 17.3914 10.7502 17.3662L11.7251 8.06475C11.7252 8.06456 11.7252 8.06431 11.7253 8.06413C11.7402 8.06156 11.7598 8.06206 11.7746 8.06544C11.7757 8.07069 11.7768 8.07731 11.7778 8.08537L13.4937 24.3971C13.4954 24.4128 13.4974 24.4284 13.4996 24.4441C13.7061 25.8812 14.7823 26.8752 16.1244 26.8751C16.1381 26.875 16.1519 26.8749 16.1654 26.8747ZM26.5198 17.6479C26.5213 17.6417 26.5228 17.6354 26.5243 17.6291L26.9676 15.7203C27.1237 15.0478 26.7052 14.3761 26.0327 14.2199C25.3601 14.0636 24.6885 14.4824 24.5324 15.1548L24.0914 17.0534C24.0766 17.1122 24.0483 17.1926 23.9038 17.1874C23.751 17.1814 23.7358 17.0906 23.7258 17.0305C23.7247 17.0239 23.7236 17.0174 23.7224 17.0108L22.7434 11.6648C22.5262 10.3932 21.4755 9.52913 20.1842 9.56344C18.8909 9.59737 17.8856 10.5179 17.7381 11.8027L17.2713 15.7274C17.1898 16.413 17.6794 17.0347 18.365 17.1163C19.0506 17.1981 19.6724 16.7082 19.7539 16.0227L20.2209 12.0955C20.2211 12.0931 20.2214 12.0908 20.2217 12.0884C20.2228 12.0789 20.2241 12.0713 20.2253 12.0654C20.2401 12.0621 20.2598 12.0615 20.2746 12.0641C20.2761 12.0699 20.2778 12.0774 20.2794 12.0869C20.2805 12.0934 20.2816 12.1 20.2828 12.1066L21.2619 17.4529C21.4781 18.7176 22.5225 19.6349 23.8057 19.6854C23.8427 19.6868 23.8794 19.6876 23.9161 19.6876C25.1563 19.6875 26.2179 18.8623 26.5198 17.6479Z" fill="#E2E2E2"/>
</svg>
