<svg width="32" height="32" viewBox="0 0 32 32" fill="none" xmlns="http://www.w3.org/2000/svg">
<path d="M24.5 31.9953H7.5C3.3645 31.9953 0 28.6308 0 24.4953V13.9784C0 11.654 1.10344 9.42467 2.95163 8.01498L11.4516 1.53192C14.1297 -0.51064 17.8703 -0.51064 20.5484 1.53192L23.25 3.59067V1.99536C23.316 0.336859 25.6846 0.338109 25.75 1.99536V6.11479C25.75 6.58998 25.4806 7.02404 25.0547 7.23498C24.6288 7.44586 24.1203 7.39698 23.7423 7.10904L19.0326 3.52011C17.2469 2.15811 14.753 2.15811 12.9677 3.5198L4.46769 10.0029C3.23563 10.9425 2.5 12.4287 2.5 13.9784V24.4953C2.5 27.2523 4.743 29.4953 7.5 29.4953H24.5C27.257 29.4953 29.5 27.2523 29.5 24.4953V13.9784C29.5 12.4097 28.7727 10.9185 27.5544 9.98923C27.0055 9.57054 26.8999 8.78617 27.3186 8.23729C27.7373 7.68836 28.5217 7.58279 29.0706 8.00148C30.9049 9.40048 32 11.6349 32 13.9784V24.4953C32 28.6308 28.6355 31.9953 24.5 31.9953ZM13.5 14.4329C12.6371 14.4329 11.9375 15.1324 11.9375 15.9954C12.0201 18.0685 14.9807 18.0669 15.0625 15.9954C15.0625 15.1324 14.3629 14.4329 13.5 14.4329ZM20.0625 15.9953C19.9799 18.0684 17.0193 18.0669 16.9375 15.9953C17.0201 13.9222 19.9807 13.9238 20.0625 15.9953ZM15.0625 20.9953C14.9799 23.0684 12.0193 23.0668 11.9375 20.9953C12.0201 18.9222 14.9807 18.9238 15.0625 20.9953ZM20.0625 20.9953C19.9799 23.0684 17.0193 23.0668 16.9375 20.9953C17.0201 18.9222 19.9807 18.9238 20.0625 20.9953Z" fill="#1E54BC"/>
</svg>
