<svg width="32" height="32" viewBox="0 0 32 32" fill="none" xmlns="http://www.w3.org/2000/svg">
<path d="M9.69655 23.6987L8.18262 25.0391C8.66468 25.5814 9.18837 26.0853 9.74903 26.5459L11.0288 24.9815C10.5515 24.5899 10.106 24.1609 9.69655 23.6987Z" fill="#8D92A3"/>
<path d="M7.70663 20.576L5.85156 21.3723C6.13839 22.0407 6.47896 22.6847 6.86993 23.298L8.57259 22.2161C8.24054 21.6934 7.95094 21.145 7.70663 20.576Z" fill="#8D92A3"/>
<path d="M25.2066 4.21145C23.1313 3.00819 20.775 2.37417 18.3761 2.37354C11.553 2.38451 5.78851 7.43744 4.88393 14.2004L1.42713 10.7436L0 12.1707L5.75999 17.9307L11.52 12.1707L10.0929 10.7436L6.97114 13.8612C8.15724 7.56846 14.2201 3.42874 20.5128 4.61485C26.8056 5.80095 30.9453 11.8638 29.7592 18.1565C28.5731 24.4492 22.5103 28.5891 16.2175 27.4029C14.9276 27.1598 13.6883 26.6994 12.5525 26.0413L11.5382 27.7863C18.0482 31.5607 26.3854 29.3431 30.1598 22.833C33.9343 16.3231 31.7166 7.98587 25.2066 4.21145Z" fill="#8D92A3"/>
<path d="M16.8623 6.91531V18.0175L21.3032 21.3481L22.5143 19.7333L18.8809 17.0082V6.91531H16.8623Z" fill="#8D92A3"/>
</svg>
