<svg width="32" height="32" viewBox="0 0 32 32" fill="none" xmlns="http://www.w3.org/2000/svg">
<path d="M24.5 31.9977H7.5C3.3645 31.9977 0 28.6332 0 24.4977V13.9807C0 11.6563 1.10344 9.42699 2.95163 8.0173L11.4516 1.53424C14.1297 -0.508321 17.8703 -0.508321 20.5484 1.53424L23.25 3.59299V1.99768C23.316 0.339179 25.6846 0.340428 25.75 1.99768V6.11711C25.75 6.5923 25.4806 7.02636 25.0547 7.2373C24.6288 7.44818 24.1203 7.3993 23.7423 7.11136L19.0326 3.52243C17.2469 2.16043 14.753 2.16043 12.9677 3.52211L4.46769 10.0052C3.23563 10.9449 2.5 12.431 2.5 13.9807V24.4977C2.5 27.2547 4.743 29.4977 7.5 29.4977H24.5C27.257 29.4977 29.5 27.2547 29.5 24.4977V13.9807C29.5 12.412 28.7727 10.9208 27.5544 9.99155C27.0055 9.57286 26.8999 8.78849 27.3186 8.23961C27.7373 7.69068 28.5217 7.58511 29.0706 8.0038C30.9049 9.4028 32 11.6372 32 13.9807V24.4977C32 28.6332 28.6355 31.9977 24.5 31.9977ZM13.5 14.4352C12.6371 14.4352 11.9375 15.1347 11.9375 15.9977C12.0201 18.0708 14.9807 18.0692 15.0625 15.9977C15.0625 15.1347 14.3629 14.4352 13.5 14.4352ZM20.0625 15.9976C19.9799 18.0707 17.0193 18.0692 16.9375 15.9976C17.0201 13.9245 19.9807 13.9261 20.0625 15.9976ZM15.0625 20.9976C14.9799 23.0707 12.0193 23.0692 11.9375 20.9976C12.0201 18.9245 14.9807 18.9261 15.0625 20.9976ZM20.0625 20.9976C19.9799 23.0707 17.0193 23.0692 16.9375 20.9976C17.0201 18.9245 19.9807 18.9261 20.0625 20.9976Z" fill="#E2E2E2"/>
</svg>
