<svg width="256" height="256" viewBox="0 0 256 256" fill="none" xmlns="http://www.w3.org/2000/svg">
<g clip-path="url(#clip0)">
<path d="M155.166 8.21289C101.275 21.0859 59.334 71.0117 59.334 128C59.334 184.988 101.275 234.914 155.168 247.787C209.057 234.914 251 184.988 251 128C251 71.0117 209.057 21.0859 155.166 8.21289V8.21289Z" fill="#389D86"/>
<path d="M183.605 92.3945C189.465 98.25 189.465 107.75 183.605 113.605L123.605 173.605C120.676 176.535 116.84 178 113 178C109.16 178 105.324 176.535 102.395 173.605L72.3945 143.605C66.5352 137.75 66.5352 128.25 72.3945 122.395C78.2559 116.535 87.7441 116.535 93.6055 122.395L113 141.789L162.395 92.3945C168.256 86.5352 177.744 86.5352 183.605 92.3945Z" fill="#EC413D"/>
<path d="M245.688 78.8301C239.113 63.6816 229.76 49.9824 217.889 38.1113C206.018 26.2402 192.318 16.8867 177.17 10.3125C161.404 3.46875 144.861 0 128 0C111.139 0 94.5957 3.46875 78.8301 10.3125C63.6816 16.8867 49.9824 26.2402 38.1113 38.1113C26.2402 49.9824 16.8867 63.6816 10.3125 78.8301C3.46875 94.5957 0 111.139 0 128C0 144.861 3.46875 161.404 10.3125 177.17C16.8867 192.318 26.2402 206.018 38.1113 217.889C49.9824 229.76 63.6816 239.113 78.8301 245.688C94.5957 252.531 111.139 256 128 256C144.861 256 161.404 252.531 177.17 245.688C192.318 239.113 206.018 229.76 217.889 217.889C229.76 206.018 239.113 192.318 245.688 177.17C252.531 161.404 256 144.861 256 128C256 111.139 252.531 94.5957 245.688 78.8301V78.8301ZM128 246C64.0371 246 10 191.963 10 128C10 64.0371 64.0371 10 128 10C191.963 10 246 64.0371 246 128C246 191.963 191.963 246 128 246Z" fill="black"/>
<path d="M225.988 86.9023C220.553 74.2734 212.807 62.8809 202.963 53.0371C193.119 43.1953 181.727 35.4473 169.098 30.0137C155.975 24.3633 142.146 21.5 128 21.5C108.77 21.5 88.7227 28.0664 70.0273 40.4902C67.7266 42.0195 67.1016 45.123 68.6309 47.4219C70.1582 49.7227 73.2617 50.3477 75.5625 48.8184C92.6113 37.4883 110.744 31.5 128 31.5C180.309 31.5 224.5 75.6914 224.5 128C224.5 180.309 180.309 224.5 128 224.5C75.6914 224.5 31.5 180.309 31.5 128C31.5 110.748 37.4883 92.6152 48.8145 75.5605C50.3418 73.2617 49.7168 70.1582 47.416 68.6309C45.1152 67.1016 42.0137 67.7285 40.4844 70.0293C28.0645 88.7266 21.5 108.773 21.5 128C21.5 142.146 24.3633 155.975 30.0117 169.098C35.4473 181.727 43.1934 193.119 53.0371 202.963C62.8809 212.805 74.2734 220.553 86.9023 225.986C100.025 231.637 113.854 234.5 128 234.5C142.146 234.5 155.975 231.637 169.098 225.988C181.727 220.553 193.119 212.807 202.963 202.963C212.805 193.119 220.553 181.727 225.986 169.098C231.637 155.975 234.5 142.146 234.5 128C234.5 113.854 231.637 100.025 225.988 86.9023V86.9023Z" fill="black"/>
<path d="M68.8594 147.141L98.8594 177.141C102.639 180.92 107.66 183 113 183C118.34 183 123.361 180.92 127.141 177.141L187.139 117.143C190.918 113.365 193 108.344 193 103C193 97.6562 190.918 92.6348 187.141 88.8594C183.361 85.0801 178.34 83 173 83C167.66 83 162.639 85.0801 158.859 88.8594L113 134.719L97.1406 118.859C93.3613 115.08 88.3398 113 83 113C77.6602 113 72.6387 115.08 68.8613 118.857C65.082 122.635 63 127.656 63 133C63 138.344 65.082 143.365 68.8594 147.141ZM75.9297 125.93C77.8203 124.041 80.3301 123 83 123C85.6699 123 88.1797 124.041 90.0703 125.93L113 148.861L165.93 95.9297C167.82 94.041 170.33 93 173 93C175.67 93 178.18 94.041 180.07 95.9316C181.959 97.8203 183 100.33 183 103C183 105.67 181.959 108.18 180.07 110.07L120.07 170.07C118.18 171.959 115.67 173 113 173C110.33 173 107.82 171.959 105.93 170.07L75.9297 140.068C74.041 138.18 73 135.67 73 133C73 130.33 74.041 127.82 75.9297 125.93Z" fill="black"/>
<path d="M57.5 52.5C54.7402 52.5 52.5 54.7402 52.5 57.5C52.5 60.2598 54.7402 62.5 57.5 62.5C60.2598 62.5 62.5 60.2598 62.5 57.5C62.5 54.7402 60.2598 52.5 57.5 52.5Z" fill="black"/>
</g>
<defs>
<clipPath id="clip0">
<rect width="256" height="256" fill="white"/>
</clipPath>
</defs>
</svg>
