<svg width="100" height="100" viewBox="0 0 100 100" fill="none" xmlns="http://www.w3.org/2000/svg">
<path d="M68.3333 48.3333C68.3333 45.0983 63.8133 39.8967 62.9067 38.8867C62.746 38.7199 62.5535 38.5873 62.3404 38.4967C62.1273 38.4061 61.8982 38.3594 61.6667 38.3594C61.4351 38.3594 61.206 38.4061 60.9929 38.4967C60.7799 38.5873 60.5873 38.7199 60.4267 38.8867C59.52 39.8967 55 45.0983 55 48.3333C55 50.1014 55.7024 51.7971 56.9526 53.0474C58.2029 54.2976 59.8986 55 61.6667 55C63.4348 55 65.1305 54.2976 66.3807 53.0474C67.631 51.7971 68.3333 50.1014 68.3333 48.3333ZM58.3333 48.3333C58.3333 47.27 59.8983 44.79 61.6667 42.58C63.435 44.79 65 47.27 65 48.3333C65 49.2174 64.6488 50.0652 64.0237 50.6904C63.3986 51.3155 62.5507 51.6667 61.6667 51.6667C60.7826 51.6667 59.9348 51.3155 59.3096 50.6904C58.6845 50.0652 58.3333 49.2174 58.3333 48.3333Z" fill="white"/>
<path d="M76.6667 50C77.1087 50 77.5326 49.8244 77.8452 49.5119C78.1578 49.1993 78.3334 48.7754 78.3334 48.3334C78.3334 47.8913 78.1578 47.4674 77.8452 47.1548C77.5326 46.8423 77.1087 46.6667 76.6667 46.6667H73.3334C72.8913 46.6667 72.4674 46.8423 72.1548 47.1548C71.8423 47.4674 71.6667 47.8913 71.6667 48.3334C71.6667 48.7754 71.8423 49.1993 72.1548 49.5119C72.4674 49.8244 72.8913 50 73.3334 50H76.6667Z" fill="white"/>
<path d="M46.6667 50H50C50.442 50 50.866 49.8244 51.1785 49.5119C51.4911 49.1993 51.6667 48.7754 51.6667 48.3334C51.6667 47.8913 51.4911 47.4674 51.1785 47.1548C50.866 46.8423 50.442 46.6667 50 46.6667H46.6667C46.2246 46.6667 45.8007 46.8423 45.4882 47.1548C45.1756 47.4674 45 47.8913 45 48.3334C45 48.7754 45.1756 49.1993 45.4882 49.5119C45.8007 49.8244 46.2246 50 46.6667 50Z" fill="white"/>
<path d="M35 48.3334C35 48.7754 35.1756 49.1993 35.4882 49.5119C35.8007 49.8244 36.2246 50 36.6667 50H40C40.442 50 40.866 49.8244 41.1785 49.5119C41.4911 49.1993 41.6667 48.7754 41.6667 48.3334C41.6667 47.8913 41.4911 47.4674 41.1785 47.1548C40.866 46.8423 40.442 46.6667 40 46.6667H36.6667C36.2246 46.6667 35.8007 46.8423 35.4882 47.1548C35.1756 47.4674 35 47.8913 35 48.3334Z" fill="white"/>
<path d="M95 60H85V50H86.6667C87.1087 50 87.5326 49.8244 87.8452 49.5118C88.1577 49.1993 88.3333 48.7754 88.3333 48.3333C88.3333 47.8913 88.1577 47.4674 87.8452 47.1548C87.5326 46.8423 87.1087 46.6667 86.6667 46.6667H85V43.3333H91.6667V53.3333H90C89.558 53.3333 89.134 53.5089 88.8215 53.8215C88.5089 54.134 88.3333 54.558 88.3333 55C88.3333 55.442 88.5089 55.8659 88.8215 56.1785C89.134 56.4911 89.558 56.6667 90 56.6667H93.3333C93.7754 56.6667 94.1993 56.4911 94.5118 56.1785C94.8244 55.8659 95 55.442 95 55V20C95 14.6957 92.8929 9.60859 89.1421 5.85786C85.3914 2.10714 80.3043 0 75 0C69.6957 0 64.6086 2.10714 60.8579 5.85786C57.1071 9.60859 55 14.6957 55 20V31.6667C55 32.1087 55.1756 32.5326 55.4882 32.8452C55.8007 33.1577 56.2246 33.3333 56.6667 33.3333H66.6667C67.1087 33.3333 67.5326 33.1577 67.8452 32.8452C68.1577 32.5326 68.3333 32.1087 68.3333 31.6667V26.6667C68.3333 26.2246 68.1577 25.8007 67.8452 25.4882C67.5326 25.1756 67.1087 25 66.6667 25C66.2246 25 65.8007 25.1756 65.4882 25.4882C65.1756 25.8007 65 26.2246 65 26.6667V30H58.3333V20C58.3333 15.5797 60.0893 11.3405 63.2149 8.21489C66.3405 5.08928 70.5797 3.33333 75 3.33333C79.4203 3.33333 83.6595 5.08928 86.7851 8.21489C89.9107 11.3405 91.6667 15.5797 91.6667 20V40H85V20C85 17.3478 83.9464 14.8043 82.0711 12.9289C80.1957 11.0536 77.6522 10 75 10C72.3478 10 69.8043 11.0536 67.9289 12.9289C66.0536 14.8043 65 17.3478 65 20C65 20.442 65.1756 20.8659 65.4882 21.1785C65.8007 21.4911 66.2246 21.6667 66.6667 21.6667C67.1087 21.6667 67.5326 21.4911 67.8452 21.1785C68.1577 20.8659 68.3333 20.442 68.3333 20C68.3333 18.2319 69.0357 16.5362 70.286 15.286C71.5362 14.0357 73.2319 13.3333 75 13.3333C76.7681 13.3333 78.4638 14.0357 79.714 15.286C80.9643 16.5362 81.6667 18.2319 81.6667 20V60H38.3333C37.1553 59.9978 36.0145 60.4125 35.1129 61.1708C34.2114 61.9291 33.6073 62.982 33.4077 64.143C33.2081 65.304 33.4258 66.4982 34.0223 67.5141C34.6188 68.53 35.5555 69.302 36.6667 69.6933V71.6667C36.6511 76.6001 38.3383 81.3878 41.4433 85.2217C41.7236 85.555 42.1233 85.7655 42.5567 85.8079C42.9902 85.8503 43.4231 85.7214 43.7627 85.4487C44.1023 85.1759 44.3216 84.7811 44.3738 84.3487C44.4259 83.9163 44.3067 83.4806 44.0417 83.135C41.4146 79.8914 39.987 75.8407 40 71.6667V70H91.6667C92.1087 70 92.5326 69.8244 92.8452 69.5118C93.1577 69.1993 93.3333 68.7754 93.3333 68.3333C93.3333 67.8913 93.1577 67.4674 92.8452 67.1548C92.5326 66.8423 92.1087 66.6667 91.6667 66.6667H38.3333C37.8913 66.6667 37.4674 66.4911 37.1548 66.1785C36.8423 65.8659 36.6667 65.442 36.6667 65C36.6667 64.558 36.8423 64.134 37.1548 63.8215C37.4674 63.5089 37.8913 63.3333 38.3333 63.3333H95C95.442 63.3333 95.866 63.5089 96.1785 63.8215C96.4911 64.134 96.6667 64.558 96.6667 65V80C96.664 82.6513 95.6096 85.1933 93.7348 87.0681C91.86 88.9429 89.318 89.9973 86.6667 90H58.3333C54.894 89.9963 51.5256 89.0223 48.615 87.19C48.2393 86.9553 47.7857 86.8794 47.3541 86.9791C46.9224 87.0788 46.5481 87.3459 46.3133 87.7217C46.0786 88.0974 46.0028 88.551 46.1025 88.9826C46.2022 89.4143 46.4693 89.7886 46.845 90.0233C50.287 92.1851 54.2688 93.3323 58.3333 93.3333H61.6667V98.3333C61.6667 98.7754 61.8423 99.1993 62.1548 99.5118C62.4674 99.8244 62.8913 100 63.3333 100C63.7754 100 64.1993 99.8244 64.5119 99.5118C64.8244 99.1993 65 98.7754 65 98.3333V93.3333H83.3333V98.3333C83.3333 98.7754 83.5089 99.1993 83.8215 99.5118C84.1341 99.8244 84.558 100 85 100C85.442 100 85.866 99.8244 86.1785 99.5118C86.4911 99.1993 86.6667 98.7754 86.6667 98.3333V93.3333C90.2017 93.3294 93.5907 91.9233 96.0904 89.4237C98.59 86.9241 99.996 83.535 100 80V65C100 63.6739 99.4732 62.4021 98.5355 61.4645C97.5978 60.5268 96.3261 60 95 60Z" fill="white"/>
<path d="M23.3333 63.3334C23.3333 63.7754 23.5089 64.1993 23.8215 64.5119C24.1341 64.8244 24.558 65 25 65C25.442 65 25.866 64.8244 26.1785 64.5119C26.4911 64.1993 26.6667 63.7754 26.6667 63.3334V50H30C30.442 50 30.866 49.8244 31.1785 49.5119C31.4911 49.1993 31.6667 48.7754 31.6667 48.3334C31.6667 47.8913 31.4911 47.4674 31.1785 47.1548C30.866 46.8423 30.442 46.6667 30 46.6667H26.6667V38.3334C26.6667 37.8913 26.4911 37.4674 26.1785 37.1548C25.866 36.8423 25.442 36.6667 25 36.6667C24.558 36.6667 24.1341 36.8423 23.8215 37.1548C23.5089 37.4674 23.3333 37.8913 23.3333 38.3334V63.3334Z" fill="white"/>
<path d="M25 18.3333C25.9889 18.3333 26.9556 18.0401 27.7778 17.4907C28.6001 16.9413 29.241 16.1604 29.6194 15.2467C29.9978 14.3331 30.0969 13.3278 29.9039 12.3579C29.711 11.388 29.2348 10.497 28.5355 9.79778C27.8363 9.09852 26.9454 8.62231 25.9755 8.42939C25.0055 8.23646 24.0002 8.33548 23.0866 8.71392C22.173 9.09236 21.3921 9.73322 20.8427 10.5555C20.2932 11.3777 20 12.3444 20 13.3333C20 14.6594 20.5268 15.9312 21.4645 16.8688C22.4021 17.8065 23.6739 18.3333 25 18.3333ZM25 11.6666C25.3296 11.6666 25.6519 11.7644 25.926 11.9475C26.2 12.1307 26.4137 12.391 26.5398 12.6955C26.6659 13.0001 26.699 13.3352 26.6346 13.6585C26.5703 13.9818 26.4116 14.2787 26.1785 14.5118C25.9454 14.7449 25.6485 14.9036 25.3252 14.968C25.0019 15.0323 24.6667 14.9993 24.3622 14.8731C24.0577 14.747 23.7974 14.5333 23.6142 14.2593C23.4311 13.9852 23.3333 13.663 23.3333 13.3333C23.3333 12.8913 23.5089 12.4674 23.8215 12.1548C24.134 11.8422 24.558 11.6666 25 11.6666Z" fill="white"/>
<path d="M25 25C25.9205 25 26.6667 24.2538 26.6667 23.3334C26.6667 22.4129 25.9205 21.6667 25 21.6667C24.0795 21.6667 23.3333 22.4129 23.3333 23.3334C23.3333 24.2538 24.0795 25 25 25Z" fill="white"/>
<path d="M25 31.6666C25.9205 31.6666 26.6667 30.9205 26.6667 30C26.6667 29.0795 25.9205 28.3333 25 28.3333C24.0795 28.3333 23.3333 29.0795 23.3333 30C23.3333 30.9205 24.0795 31.6666 25 31.6666Z" fill="white"/>
<path d="M25 5.00002C25.9205 5.00002 26.6667 4.25383 26.6667 3.33335C26.6667 2.41288 25.9205 1.66669 25 1.66669C24.0795 1.66669 23.3333 2.41288 23.3333 3.33335C23.3333 4.25383 24.0795 5.00002 25 5.00002Z" fill="white"/>
<path d="M15 15C15.9205 15 16.6667 14.2538 16.6667 13.3334C16.6667 12.4129 15.9205 11.6667 15 11.6667C14.0795 11.6667 13.3333 12.4129 13.3333 13.3334C13.3333 14.2538 14.0795 15 15 15Z" fill="white"/>
<path d="M35 15C35.9205 15 36.6667 14.2538 36.6667 13.3334C36.6667 12.4129 35.9205 11.6667 35 11.6667C34.0795 11.6667 33.3333 12.4129 33.3333 13.3334C33.3333 14.2538 34.0795 15 35 15Z" fill="white"/>
<path d="M33.25 7.44002C33.4831 7.20695 33.6419 6.90998 33.7063 6.58667C33.7706 6.26335 33.7376 5.92822 33.6115 5.62364C33.4854 5.31907 33.2718 5.05874 32.9977 4.87558C32.7236 4.69243 32.4013 4.59467 32.0717 4.59467C31.742 4.59467 31.4198 4.69243 31.1457 4.87558C30.8716 5.05874 30.6579 5.31907 30.5318 5.62364C30.4057 5.92822 30.3727 6.26335 30.4371 6.58667C30.5014 6.90998 30.6602 7.20695 30.8933 7.44002C31.2059 7.75247 31.6297 7.928 32.0717 7.928C32.5136 7.928 32.9375 7.75247 33.25 7.44002Z" fill="white"/>
<path d="M16.75 19.2267C16.5169 19.4598 16.3581 19.7567 16.2937 20.08C16.2294 20.4034 16.2623 20.7385 16.3885 21.0431C16.5146 21.3476 16.7282 21.608 17.0023 21.7911C17.2764 21.9743 17.5987 22.072 17.9283 22.072C18.258 22.072 18.5802 21.9743 18.8543 21.7911C19.1284 21.608 19.342 21.3476 19.4682 21.0431C19.5943 20.7385 19.6273 20.4034 19.5629 20.08C19.4986 19.7567 19.3398 19.4598 19.1067 19.2267C18.7941 18.9142 18.3703 18.7387 17.9283 18.7387C17.4864 18.7387 17.0625 18.9142 16.75 19.2267Z" fill="white"/>
<path d="M33.25 21.5833C33.4831 21.3503 33.6419 21.0533 33.7063 20.73C33.7706 20.4067 33.7376 20.0715 33.6115 19.767C33.4854 19.4624 33.2718 19.2021 32.9977 19.0189C32.7236 18.8357 32.4013 18.738 32.0717 18.738C31.742 18.738 31.4198 18.8357 31.1457 19.0189C30.8716 19.2021 30.6579 19.4624 30.5318 19.767C30.4057 20.0715 30.3727 20.4067 30.4371 20.73C30.5014 21.0533 30.6602 21.3503 30.8933 21.5833C31.2059 21.8958 31.6297 22.0713 32.0717 22.0713C32.5136 22.0713 32.9375 21.8958 33.25 21.5833Z" fill="white"/>
<path d="M19.1067 7.44002C19.3398 7.20695 19.4986 6.90998 19.5629 6.58667C19.6273 6.26335 19.5943 5.92822 19.4682 5.62364C19.342 5.31907 19.1284 5.05874 18.8543 4.87558C18.5802 4.69243 18.258 4.59467 17.9283 4.59467C17.5987 4.59467 17.2764 4.69243 17.0023 4.87558C16.7282 5.05874 16.5146 5.31907 16.3885 5.62364C16.2623 5.92822 16.2294 6.26335 16.2937 6.58667C16.3581 6.90998 16.5169 7.20695 16.75 7.44002C17.0625 7.75247 17.4864 7.928 17.9283 7.928C18.3703 7.928 18.7941 7.75247 19.1067 7.44002Z" fill="white"/>
<path d="M16.6667 66.6667C13.3703 66.6667 10.148 67.6442 7.40717 69.4755C4.66635 71.3069 2.53014 73.9099 1.26868 76.9553C0.0072214 80.0007 -0.322834 83.3518 0.320253 86.5849C0.96334 89.8179 2.55069 92.7876 4.88156 95.1185C7.21244 97.4493 10.1822 99.0367 13.4152 99.6798C16.6482 100.323 19.9993 99.9928 23.0447 98.7313C26.0902 97.4699 28.6931 95.3337 30.5245 92.5929C32.3559 89.852 33.3333 86.6297 33.3333 83.3334C33.3285 78.9146 31.571 74.6782 28.4464 71.5536C25.3219 68.429 21.0855 66.6715 16.6667 66.6667ZM16.6667 96.6667C14.0296 96.6667 11.4517 95.8847 9.25907 94.4196C7.06641 92.9545 5.35745 90.8721 4.34828 88.4358C3.33911 85.9994 3.07507 83.3186 3.58954 80.7321C4.10401 78.1457 5.37388 75.77 7.23858 73.9053C9.10328 72.0406 11.4791 70.7707 14.0655 70.2562C16.6519 69.7417 19.3328 70.0058 21.7691 71.015C24.2055 72.0241 26.2878 73.7331 27.7529 75.9258C29.218 78.1184 30 80.6963 30 83.3334C29.996 86.8684 28.59 90.2574 26.0904 92.7571C23.5908 95.2567 20.2017 96.6627 16.6667 96.6667Z" fill="white"/>
<path d="M11.9533 83.62C11.6497 83.9343 11.4817 84.3553 11.4855 84.7923C11.4893 85.2293 11.6646 85.6473 11.9736 85.9563C12.2826 86.2653 12.7007 86.4406 13.1377 86.4444C13.5747 86.4482 13.9957 86.2802 14.31 85.9766C14.9447 85.3702 15.7888 85.0319 16.6667 85.0319C17.5445 85.0319 18.3886 85.3702 19.0233 85.9766C19.3377 86.2802 19.7587 86.4482 20.1957 86.4444C20.6327 86.4406 21.0507 86.2653 21.3597 85.9563C21.6687 85.6473 21.844 85.2293 21.8478 84.7923C21.8516 84.3553 21.6836 83.9343 21.38 83.62C20.1107 82.4068 18.4225 81.7298 16.6667 81.7298C14.9108 81.7298 13.2226 82.4068 11.9533 83.62Z" fill="white"/>
<path d="M7.23833 78.905C6.93473 79.2193 6.76674 79.6403 6.77054 80.0773C6.77434 80.5143 6.94962 80.9324 7.25863 81.2414C7.56765 81.5504 7.98567 81.7257 8.42266 81.7295C8.85966 81.7333 9.28066 81.5653 9.595 81.2617C11.4719 79.3888 14.0152 78.337 16.6667 78.337C19.3182 78.337 21.8614 79.3888 23.7383 81.2617C24.0527 81.5653 24.4737 81.7333 24.9107 81.7295C25.3477 81.7257 25.7657 81.5504 26.0747 81.2414C26.3837 80.9324 26.559 80.5143 26.5628 80.0773C26.5666 79.6403 26.3986 79.2193 26.095 78.905C23.5923 76.4084 20.2017 75.0064 16.6667 75.0064C13.1317 75.0064 9.741 76.4084 7.23833 78.905Z" fill="white"/>
<path d="M16.6667 91.6666C17.5871 91.6666 18.3333 90.9205 18.3333 90C18.3333 89.0795 17.5871 88.3333 16.6667 88.3333C15.7462 88.3333 15 89.0795 15 90C15 90.9205 15.7462 91.6666 16.6667 91.6666Z" fill="white"/>
</svg>
